**ABCDEFGHIJKLMNOPQRSTUVWXYZabcdefghijklmnopqrstuvwxyz**************************
**PARASOLID !"#$%&'()*+,-./:;<=>?@[\]^_`{|}~0123456789**************************
**PART1;
MC=x86;
MC_MODEL=x86 Family 6 Model 1 Stepping 7, GenuineIntel;
MC_ID=unknown;
OS=Windows_NT;
OS_RELEASE=unknown;
FRU=Parasolid Version 10.0, build 272,  4-14-1999;
APPL=SolidWorks 98Plus-1999108;
SITE=;
USER=unknown;
FORMAT=text;
GUISE=transmit;
KEY=BLOCKHOLE_M;
FILE=BLOCKHOLE_M.x_t;
DATE=Tue Jun 15 11:00:08 1999;
**PART2;
SCH=SCH_1000272_10004;
USFLD_SIZE=0;
**PART3;
**END_OF_HEADER*****************************************************************
T51 : TRANSMIT FILE created by modeller version 100027217 SCH_1000272_100040 10
 1 8 0 0 0 0 0 0 0 1e3 1e-8 0 0 0 1 0 1 2 11 2 7 0 1 3 4 1 5 0 0 0 12 3 140 6 7
 0 0 0 0 1e3 1e-8 2 8 0 1 0 1 1 9 10 11 12 13 14 15 100 4 8 2 0 0 1 0 0 0 1 0 0
 0 1 1.169651926444834 -1.253213922942206 -1 1 1 ?11 5 5 0 1 8 16 1 17 2 0 0 12
 8 140 18 19 0 0 0 0 1e3 1e-8 5 20 3 1 0 1 1 21 22 23 24 25 26 27 100 16 6 5 0 0
 1 0 0 0 1 0 0 0 1 1.169651926444834 1.246786077057792 -1 1 1 ?11 17 3 0 1 20 28
 1 29 5 0 0 12 20 140 30 31 0 0 0 0 1e3 1e-8 17 32 8 1 0 1 1 33 34 35 36 37 38 3
9 100 28 4 17 0 0 1 0 0 0 1 0 0 0 1 -1.330348073555166 1.246786077057794 -1 1 1
 ?11 29 1 0 1 32 40 1 0 17 0 0 12 32 140 41 42 0 0 0 0 1e3 1e-8 29 43 20 1 0 1 1
 44 45 46 47 48 49 50 100 40 2 29 0 0 1 0 0 0 1 0 0 0 1 -1.330348073555166 -1.25
3213922942206 -1 1 1 ?81 1 41 140 51 32 0 0 0 0 52 70 42 0 32 0 0 4 2 20 4 53 53
 1 T13 44 30 0 32 0 54 0 0 55 0 50 45 110 0 56 57 0 0 +0 0 2 0 1 0 0 0 1 30 46 1
05 0 49 58 0 0 +0 0 2 0 0 -1 29 47 28 0 50 59 0 0 0 2 19 48 44 0 32 55 0 60 V16
 49 98 0 ?61 0 62 46 0 0 32 18 50 27 0 63 0 64 47 ?32 17 63 65 66 67 50 61 49 0
 68 -18 64 25 0 69 50 70 59 ?32 17 69 71 72 73 64 74 62 0 75 -18 70 23 0 76 64 7
7 78 ?32 29 59 26 0 64 78 47 2.5 0 2 29 78 24 0 70 79 59 2.5 1.5 2 29 79 22 0 77
 80 78 1.5 2.5 2 18 77 21 0 81 70 82 79 ?32 29 80 20 0 82 83 79 0 2.5 2 18 82 19
 0 84 77 85 80 ?32 29 83 83 0 85 86 80 0 0 0 18 85 66 0 61 82 87 83 ?32 29 86 84
 0 87 88 83 2.5 0 0 18 87 70 0 74 85 89 86 ?32 29 88 85 0 89 90 86 2.5 1.5 0 18
 89 69 0 91 87 92 88 ?32 29 90 86 0 92 93 88 1.5 2.5 0 18 92 68 0 94 89 95 90 ?3
2 29 93 87 0 95 0 90 0 2.5 0 18 95 67 0 96 92 0 93 ?32 17 96 65 67 66 95 84 97 0
 98 +15 65 99 0 63 54 0 17 67 65 63 96 85 98 99 0 100 -17 66 65 96 63 82 68 101
 0 102 +17 84 103 104 105 82 96 97 0 66 -16 97 88 0 ?96 106 107 108 0 0 32 17 98
 109 110 100 95 67 99 0 105 +15 109 74 0 98 111 0 17 110 109 112 98 92 105 113 0
 114 +17 100 109 98 115 85 73 116 0 0 -16 99 58 0 ?98 113 0 117 0 0 32 17 105 10
3 84 94 95 110 113 0 0 -15 103 41 0 104 118 0 17 94 103 105 104 92 81 106 0 110
 +16 113 62 0 ?110 119 99 120 0 0 32 16 119 54 0 ?114 121 113 122 0 0 32 30 120
 81 0 113 117 122 0 +0 2.5 0 1 0 0 30 117 82 0 99 0 120 0 +0 0 0 0 1 0 31 122 80
 0 119 120 123 0 +2.5 2.5 0 0 0 -1 -1 0 0 1 30 123 79 0 121 122 124 0 +2.5 0 0 0
 1 0 16 121 50 0 ?125 116 119 123 0 0 32 30 124 78 0 116 123 126 0 +0 0 0 1 0 0
 16 116 46 0 ?73 101 121 124 0 0 32 30 126 5 0 101 124 127 0 +0 0 2 0 1 0 16 101
 4 0 ?66 128 116 126 0 0 32 30 127 8 0 128 126 129 0 +0 2.5 2 1 0 0 16 128 7 0 ?
104 130 101 127 0 0 32 31 129 11 0 130 127 131 0 +2.5 2.5 2 0 0 -1 -1 0 0 1 16 1
30 10 0 ?132 133 128 129 0 0 32 30 131 14 0 133 129 134 0 +2.5 0 2 0 1 0 16 133
 13 0 ?135 107 130 131 0 0 32 30 134 17 0 107 131 108 0 +0 0 2 1 0 0 16 107 16 0
 ?136 97 133 134 0 0 32 30 108 101 0 97 134 137 0 +0 2.5 2 0 0 -1 30 137 102 0 1
06 108 138 0 +1.5 2.5 2 0 0 -1 16 106 89 0 ?94 139 97 137 0 0 32 30 138 103 0 13
9 137 58 0 +2.5 1.5 2 0 0 -1 16 139 92 0 ?91 62 106 138 0 0 32 30 58 104 0 62 13
8 46 0 +2.5 0 2 0 0 -1 16 62 95 0 ?74 49 139 58 0 0 32 17 74 140 125 75 87 69 62
 0 115 +15 140 93 0 76 141 0 17 125 140 76 74 89 115 121 0 0 +17 75 140 74 76 64
 135 133 0 136 -17 115 109 100 112 87 125 121 0 73 -17 112 109 115 110 89 114 11
9 0 125 -17 73 71 69 61 87 100 116 0 0 +15 71 96 0 69 56 0 17 61 71 73 72 85 63
 49 0 67 +17 72 71 61 69 50 136 107 0 0 -17 136 142 135 68 64 72 107 0 0 +15 142
 3 0 68 143 0 17 135 142 132 136 70 75 133 0 0 +17 68 142 136 102 50 66 101 0 72
 -17 102 142 68 132 82 104 128 0 0 -17 132 142 102 135 77 144 130 0 0 +17 104 10
3 94 84 77 102 128 0 132 +17 144 145 91 81 70 132 130 0 135 -15 145 90 0 81 146
 0 17 91 145 114 144 89 76 139 0 112 +17 81 145 144 114 77 94 106 0 104 -17 114
 145 81 91 92 112 119 0 0 +17 76 140 75 125 70 91 139 0 144 -14 146 91 147 ?118
 141 145 44 148 -0 0 143 141 60 81 1 147 136 149 146 0 0 150 151 152 14 118 42 1
51 ?143 146 103 44 153 +0 0 111 143 60 14 141 94 150 ?146 56 140 44 57 -0 0 146
 56 60 51 148 108 0 146 153 57 0 +2.5 2.5 2 0 0 -1 1 -1 0 0 14 143 1 154 ?111 11
8 142 44 155 -0 0 118 146 60 13 60 43 0 0 0 0 0 0 48 54 14 54 100 156 ?56 0 65 4
4 157 +0 0 56 0 60 81 1 156 133 149 54 0 0 0 158 159 14 56 97 158 ?141 54 71 44
 45 -0 0 141 54 60 50 157 106 0 54 155 153 0 +0 0 2 -1 0 0 0 0 1 50 155 2 0 143
 160 157 0 +2.5 2.5 2 0 0 -1 -1 0 0 50 153 107 0 118 157 148 0 +0 2.5 2 0 1 0 0
 0 1 50 160 77 0 111 0 155 0 +2.5 2.5 0 0 0 -1 -1 0 0 14 111 73 161 ?0 143 109 4
4 160 +0 0 0 118 60 81 1 161 139 149 111 0 0 154 0 162 80 1 149 0 163 8001 0 0 0
 0 3 5 0 0 FFFFTFTFFFFFF2 81 1 154 138 149 143 0 0 151 161 164 83 3 162 .7529411
76470588 .752941176470588 .752941176470588 81 1 151 137 149 118 0 0 147 154 165
 83 3 164 .752941176470588 .752941176470588 .752941176470588 83 3 165 .752941176
470588 .752941176470588 .752941176470588 79 15 163 SDL/TYSA_COLOUR81 1 158 134 1
49 56 0 0 156 150 166 81 1 150 135 149 141 0 0 158 147 167 83 3 166 .75294117647
0588 .752941176470588 .752941176470588 83 3 167 .752941176470588 .75294117647058
8 .752941176470588 83 3 159 .752941176470588 .752941176470588 .752941176470588 5
0 57 109 0 141 148 45 0 +2.5 0 2 -1 0 0 0 0 1 83 3 152 .752941176470588 .7529411
76470588 .752941176470588 19 55 29 0 32 0 48 44 S74 20 53 2 0 161 41 0 0 0 0 0 0
 0 0 0 0 0 0 0 0 0 0 0 0 80 1 51 168 169 8017 0 0 0 0 0 0 0 0 TTTTTTTTTTTTT3 84
 12 52 BLOCKHOLE_m179 13 169 SDL/TYSA_NAME81 1 30 140 51 20 0 0 0 0 170 70 31 0
 20 0 0 4 2 20 4 171 171 1 T13 33 30 0 20 0 172 0 0 173 0 51 34 110 0 174 175 0
 0 +2.5 0 2 0 0 -1 1 -1 0 0 30 35 105 0 38 176 0 0 +1.5 0 2 0 0 -1 29 36 28 0 39
 177 0 0 0 2 19 37 44 0 20 173 0 178 V16 38 98 0 ?179 0 180 35 0 0 20 18 39 27 0
 181 0 182 36 ?20 17 181 183 184 185 39 186 187 0 188 -18 182 25 0 189 39 190 17
7 ?20 17 189 191 192 193 182 194 195 0 196 -18 190 23 0 197 182 198 199 ?20 29 1
77 26 0 182 199 36 0 2.5 2 29 199 24 0 190 200 177 2.5 2.5 2 29 200 22 0 198 201
 199 2.5 1 2 18 198 21 0 202 190 203 200 ?20 29 201 20 0 203 204 200 1.5 0 2 18
 203 19 0 205 198 206 201 ?20 29 204 83 0 206 207 201 0 0 0 18 206 70 0 186 203
 208 204 ?20 29 207 84 0 208 209 204 0 2.5 0 18 208 69 0 194 206 210 207 ?20 29
 209 85 0 210 211 207 2.5 2.5 0 18 210 68 0 212 208 213 209 ?20 29 211 86 0 213
 214 209 2.5 1 0 18 213 67 0 215 210 216 211 ?20 29 214 87 0 216 0 211 1.5 0 0 1
8 216 66 0 179 213 0 214 ?20 17 179 217 218 219 216 205 38 0 220 +15 217 96 0 20
2 174 0 17 218 217 202 179 213 221 222 0 223 +17 219 217 179 202 203 224 225 0 0
 -17 205 226 188 220 203 179 38 0 227 -17 220 226 205 186 216 228 229 0 221 +15
 226 99 0 205 172 0 17 186 226 220 188 206 181 187 0 228 +17 228 230 231 221 206
 220 229 0 185 -16 229 46 0 ?220 222 0 232 0 0 20 17 221 230 228 223 216 218 222
 0 0 -15 230 74 0 228 233 0 17 223 230 221 234 213 235 236 0 0 +16 222 50 0 ?218
 236 229 237 0 0 20 16 236 62 0 ?223 238 222 239 0 0 20 31 237 81 0 222 232 239
 0 +2.5 0 0 0 0 -1 -1 0 0 1 30 232 82 0 229 0 237 0 +0 0 0 1 0 0 30 239 80 0 236
 237 240 0 +2.5 2.5 0 0 -1 0 30 240 79 0 238 239 241 0 +0 2.5 0 1 0 0 16 238 58
 0 ?234 242 236 240 0 0 20 30 241 78 0 242 240 243 0 +0 0 0 0 1 0 16 242 54 0 ?2
31 244 238 241 0 0 20 30 243 5 0 244 241 245 0 +0 0 2 1 0 0 16 244 4 0 ?227 225
 242 243 0 0 20 31 245 8 0 225 243 246 0 +2.5 0 2 0 0 -1 -1 0 0 1 16 225 7 0 ?22
4 247 244 245 0 0 20 30 246 11 0 247 245 248 0 +2.5 2.5 2 0 -1 0 16 247 10 0 ?24
9 250 225 246 0 0 20 30 248 14 0 250 246 251 0 +0 2.5 2 1 0 0 16 250 13 0 ?192 2
52 247 248 0 0 20 30 251 17 0 252 248 253 0 +0 0 2 0 1 0 16 252 16 0 ?184 187 25
0 251 0 0 20 30 253 101 0 187 251 254 0 +0 0 2 0 0 -1 16 187 88 0 ?186 195 252 2
53 0 0 20 30 254 102 0 195 253 255 0 +0 2.5 2 0 0 -1 16 195 89 0 ?194 256 187 25
4 0 0 20 30 255 103 0 256 254 176 0 +2.5 2.5 2 0 0 -1 16 256 92 0 ?212 180 195 2
55 0 0 20 30 176 104 0 180 255 35 0 +2.5 1 2 0 0 -1 16 180 95 0 ?215 38 256 176
 0 0 20 17 215 257 235 249 213 202 180 0 218 +15 257 93 0 197 258 0 17 235 257 1
97 215 210 223 236 0 234 -17 249 257 215 197 198 259 247 0 0 +17 202 217 219 218
 198 215 180 0 224 -17 224 260 259 227 198 219 225 0 249 +15 260 3 0 227 261 0 1
7 259 260 196 224 190 249 247 0 192 -17 227 260 224 262 203 188 244 0 219 +17 26
2 260 227 196 39 184 252 0 0 -17 188 226 186 205 39 227 244 0 262 -17 196 260 26
2 259 182 192 250 0 184 -17 184 183 194 181 182 262 252 0 0 +15 183 41 0 184 263
 0 17 194 183 185 184 208 189 195 0 193 +17 185 183 181 194 206 231 242 0 0 -17
 193 191 189 212 208 234 238 0 231 -15 191 90 0 189 264 0 17 212 191 193 192 210
 197 256 0 235 +17 234 230 223 231 210 193 238 0 0 +17 231 230 234 228 208 185 2
42 0 0 +17 192 191 212 189 190 196 250 0 0 +17 197 257 249 235 190 212 256 0 259
 -14 264 91 265 ?263 258 191 33 266 +0 0 261 258 178 81 1 265 136 149 264 0 0 26
7 268 269 14 263 42 268 ?261 264 183 33 270 +0 0 233 261 178 14 258 94 267 ?264
 174 257 33 175 +0 0 264 174 178 50 266 108 0 264 270 175 0 +0 2.5 2 0 1 0 0 0 1
 14 261 1 271 ?233 263 260 33 272 -0 0 263 264 178 13 178 43 0 0 0 0 0 0 37 172
 14 172 100 273 ?174 0 226 33 274 -0 0 174 0 178 81 1 273 133 149 172 0 0 0 275
 276 14 174 97 275 ?258 172 217 33 34 -0 0 258 172 178 50 274 106 0 172 272 270
 0 +0 0 2 0 1 0 0 0 1 50 272 2 0 261 277 274 0 +2.5 0 2 0 0 -1 -1 0 0 50 270 107
 0 263 274 266 0 +0 0 2 -1 0 0 0 0 1 50 277 77 0 233 0 272 0 +2.5 0 0 0 0 -1 -1
 0 0 14 233 73 278 ?0 261 230 33 277 +0 0 0 263 178 81 1 278 139 149 233 0 0 271
 0 279 81 1 271 138 149 261 0 0 268 278 280 83 3 279 .752941176470588 .752941176
470588 .752941176470588 81 1 268 137 149 263 0 0 265 271 281 83 3 280 .752941176
470588 .752941176470588 .752941176470588 83 3 281 .752941176470588 .752941176470
588 .752941176470588 81 1 275 134 149 174 0 0 273 267 282 81 1 267 135 149 258 0
 0 275 265 283 83 3 282 .752941176470588 .752941176470588 .752941176470588 83 3
 283 .752941176470588 .752941176470588 .752941176470588 83 3 276 .75294117647058
8 .752941176470588 .752941176470588 50 175 109 0 258 266 34 0 +2.5 2.5 2 1 0 0 0
 0 -1 83 3 269 .752941176470588 .752941176470588 .752941176470588 19 173 29 0 20
 0 37 33 S74 20 171 2 0 278 30 0 0 0 0 0 0 0 0 0 0 0 0 0 0 0 0 0 0 84 12 170 BLO
CKHOLE_m281 1 18 140 51 8 0 0 0 0 284 70 19 0 8 0 0 4 2 20 4 285 285 1 T13 21 30
 0 8 0 286 0 0 287 0 50 22 110 0 288 289 0 0 +2.5 0 2 0 -1 0 0 0 -1 30 23 105 0
 26 290 0 0 +1 0 2 0 0 -1 29 24 28 0 27 291 0 0 1 2 19 25 44 0 8 287 0 292 V16 2
6 98 0 ?293 0 294 23 0 0 8 18 27 27 0 295 0 296 24 ?8 17 295 297 298 299 27 300
 301 0 302 -18 296 25 0 303 27 304 291 ?8 17 303 305 306 307 296 308 309 0 310 -
18 304 23 0 311 296 312 313 ?8 29 291 26 0 296 313 24 0 2.5 2 29 313 24 0 304 31
4 291 2.5 2.5 2 29 314 22 0 312 315 313 2.5 0 2 18 312 21 0 316 304 317 314 ?8 2
9 315 20 0 317 318 314 1 0 2 18 317 19 0 319 312 320 315 ?8 29 318 83 0 320 321
 315 0 1 0 18 320 70 0 300 317 322 318 ?8 29 321 84 0 322 323 318 0 2.5 0 18 322
 69 0 308 320 324 321 ?8 29 323 85 0 324 325 321 2.5 2.5 0 18 324 68 0 326 322 3
27 323 ?8 29 325 86 0 327 328 323 2.5 0 0 18 327 67 0 329 324 330 325 ?8 29 328
 87 0 330 0 325 1 0 0 18 330 66 0 293 327 0 328 ?8 17 293 331 332 333 330 319 26
 0 334 +15 331 96 0 316 288 0 17 332 331 316 293 327 335 336 0 337 -17 333 331 2
93 316 317 338 339 0 0 +17 319 340 302 334 317 293 26 0 341 -17 334 340 319 300
 330 342 343 0 335 +15 340 99 0 319 286 0 17 300 340 334 302 320 295 301 0 342 +
17 342 344 345 335 320 334 343 0 299 -16 343 50 0 ?334 336 0 346 0 0 8 17 335 34
4 342 337 330 332 336 0 0 +15 344 74 0 342 347 0 17 337 344 335 348 327 349 350
 0 0 +16 336 62 0 ?335 350 343 351 0 0 8 16 350 58 0 ?337 352 336 353 0 0 8 30 3
51 81 0 336 346 353 0 +2.5 0 0 -1 0 0 31 346 82 0 343 0 351 0 +0 0 0 0 0 -1 -1 0
 0 1 30 353 80 0 350 351 354 0 +2.5 2.5 0 0 -1 0 30 354 79 0 352 353 355 0 +2.5
 2.5 0 -1 0 0 16 352 54 0 ?307 356 350 354 0 0 8 30 355 78 0 356 354 357 0 +0 2.
5 0 0 -1 0 16 356 46 0 ?299 358 352 355 0 0 8 31 357 5 0 358 355 359 0 +0 0 2 0
 0 -1 -1 0 0 1 16 358 4 0 ?341 339 356 357 0 0 8 30 359 8 0 339 357 360 0 +2.5 0
 2 -1 0 0 16 339 7 0 ?333 361 358 359 0 0 8 30 360 11 0 361 359 362 0 +2.5 2.5 2
 0 -1 0 16 361 10 0 ?363 364 339 360 0 0 8 30 362 14 0 364 360 365 0 +2.5 2.5 2
 -1 0 0 16 364 13 0 ?310 366 361 362 0 0 8 30 365 17 0 366 362 367 0 +0 2.5 2 0
 -1 0 16 366 16 0 ?368 301 364 365 0 0 8 30 367 101 0 301 365 369 0 +0 1 2 0 0 -
1 16 301 88 0 ?300 309 366 367 0 0 8 30 369 102 0 309 367 370 0 +0 2.5 2 0 0 -1
 16 309 89 0 ?308 371 301 369 0 0 8 30 370 103 0 371 369 290 0 +2.5 2.5 2 0 0 -1
 16 371 92 0 ?326 294 309 370 0 0 8 30 290 104 0 294 370 23 0 +2.5 0 2 0 0 -1 16
 294 95 0 ?329 26 371 290 0 0 8 17 329 372 349 363 327 316 294 0 332 +15 372 93
 0 311 373 0 17 349 372 311 329 324 337 350 0 348 -17 363 372 329 311 312 374 36
1 0 0 +17 316 331 333 332 312 329 294 0 338 -17 338 375 374 341 312 333 339 0 36
3 -15 375 3 0 341 376 0 17 374 375 310 338 304 363 361 0 306 -17 341 375 338 368
 317 302 358 0 333 +17 368 375 341 310 27 298 366 0 0 +17 302 340 300 319 27 341
 358 0 368 -17 310 375 368 374 296 306 364 0 298 +17 298 297 308 295 296 368 366
 0 0 -15 297 41 0 298 377 0 17 308 297 299 298 322 303 309 0 307 +17 299 297 295
 308 320 345 356 0 0 +17 307 305 303 326 322 348 352 0 345 +15 305 90 0 303 378
 0 17 326 305 307 306 324 311 371 0 349 +17 348 344 337 345 324 307 352 0 0 -17
 345 344 348 342 322 299 356 0 0 -17 306 305 326 303 304 310 364 0 0 -17 311 372
 363 349 304 326 371 0 374 -14 378 91 379 ?377 373 305 21 380 -0 0 376 373 292 8
1 1 379 136 149 378 0 0 381 382 383 14 377 42 382 ?376 378 297 21 384 -0 0 347 3
76 292 14 373 94 381 ?378 288 372 21 289 +0 0 378 288 292 50 380 108 0 378 384 2
89 0 +2.5 2.5 2 0 -1 0 0 0 -1 14 376 1 385 ?347 377 375 21 386 -0 0 377 378 292
 13 292 43 0 0 0 0 0 0 25 286 14 286 100 387 ?288 0 340 21 388 -0 0 288 0 292 81
 1 387 133 149 286 0 0 0 389 390 14 288 97 389 ?373 286 331 21 22 +0 0 373 286 2
92 51 388 106 0 286 386 384 0 +0 0 2 0 0 -1 1 -1 0 0 50 386 2 0 376 391 388 0 +0
 0 2 0 0 -1 -1 0 0 50 384 107 0 377 388 380 0 +0 2.5 2 1 0 0 0 0 -1 50 391 77 0
 347 0 386 0 +0 0 0 0 0 -1 -1 0 0 14 347 73 392 ?0 376 344 21 391 +0 0 0 377 292
 81 1 392 139 149 347 0 0 385 0 393 81 1 385 138 149 376 0 0 382 392 394 83 3 39
3 .752941176470588 .752941176470588 .752941176470588 81 1 382 137 149 377 0 0 37
9 385 395 83 3 394 .752941176470588 .752941176470588 .752941176470588 83 3 395 .
752941176470588 .752941176470588 .752941176470588 81 1 389 134 149 288 0 0 387 3
81 396 81 1 381 135 149 373 0 0 389 379 397 83 3 396 .752941176470588 .752941176
470588 .752941176470588 83 3 397 .752941176470588 .752941176470588 .752941176470
588 83 3 390 .752941176470588 .752941176470588 .752941176470588 50 289 109 0 373
 380 22 0 +2.5 2.5 2 1 0 0 0 0 -1 83 3 383 .752941176470588 .752941176470588 .75
2941176470588 19 287 29 0 8 0 25 21 S74 20 285 2 0 392 18 0 0 0 0 0 0 0 0 0 0 0
 0 0 0 0 0 0 0 84 12 284 BLOCKHOLE_m381 1 6 140 51 3 0 0 0 0 398 70 7 0 3 0 0 4
 2 20 4 399 399 1 T13 9 30 0 3 0 400 0 0 401 0 50 10 110 0 402 403 0 0 +0 0 2 0
 1 0 0 0 1 30 11 105 0 14 404 0 0 +0 0 2 0 0 -1 29 12 28 0 15 405 0 0 0 2 19 13
 44 0 3 401 0 406 V16 14 98 0 ?407 0 408 11 0 0 3 18 15 27 0 409 0 410 12 ?3 17
 409 411 412 413 15 407 14 0 414 -18 410 25 0 415 15 416 405 ?3 17 415 417 418 4
19 410 420 408 0 421 -18 416 23 0 422 410 423 424 ?3 29 405 26 0 410 424 12 2.5
 0 2 29 424 24 0 416 425 405 2.5 2.5 2 29 425 22 0 423 426 424 1 2.5 2 18 423 21
 0 427 416 428 425 ?3 29 426 20 0 428 429 425 1836909530733565e-31 1.5 2 18 428
 19 0 430 423 431 426 ?3 29 429 83 0 431 432 426 0 0 0 18 431 66 0 407 428 433 4
29 ?3 29 432 84 0 433 434 429 2.5 0 0 18 433 70 0 420 431 435 432 ?3 29 434 85 0
 435 436 432 2.5 2.5 0 18 435 69 0 437 433 438 434 ?3 29 436 86 0 438 439 434 1
 2.5 0 18 438 68 0 440 435 441 436 ?3 29 439 87 0 441 0 436 1836909530733565e-31
 1.5 0 18 441 67 0 442 438 0 439 ?3 17 442 411 413 412 441 430 443 0 444 +15 411
 99 0 409 400 0 17 413 411 409 442 431 444 445 0 446 -17 412 411 442 409 428 414
 447 0 448 +17 430 449 450 451 428 442 443 0 412 -16 443 88 0 ?442 452 453 454 0
 0 3 17 444 455 456 446 441 413 445 0 451 +15 455 74 0 444 457 0 17 456 455 458
 444 438 451 459 0 460 -17 446 455 444 461 431 419 462 0 0 -16 445 62 0 ?444 459
 0 463 0 0 3 17 451 449 430 440 441 456 459 0 0 +15 449 41 0 450 464 0 17 440 44
9 451 450 438 427 452 0 456 +16 459 58 0 ?451 465 445 466 0 0 3 16 465 54 0 ?460
 467 459 468 0 0 3 31 466 81 0 459 463 468 0 +0 2.5 0 0 0 -1 -1 0 0 1 30 463 82
 0 445 0 466 0 +0 0 0 0 1 0 30 468 80 0 465 466 469 0 +2.5 2.5 0 -1 0 0 30 469 7
9 0 467 468 470 0 +2.5 0 0 0 1 0 16 467 50 0 ?471 462 465 469 0 0 3 30 470 78 0
 462 469 472 0 +0 0 0 1 0 0 16 462 46 0 ?419 447 467 470 0 0 3 30 472 5 0 447 47
0 473 0 +0 0 2 0 1 0 16 447 4 0 ?412 474 462 472 0 0 3 31 473 8 0 474 472 475 0
 +0 2.5 2 0 0 -1 -1 0 0 1 16 474 7 0 ?448 476 447 473 0 0 3 30 475 11 0 476 473
 477 0 +2.5 2.5 2 -1 0 0 16 476 10 0 ?478 479 474 475 0 0 3 30 477 14 0 479 475
 480 0 +2.5 0 2 0 1 0 16 479 13 0 ?481 453 476 477 0 0 3 30 480 17 0 453 477 454
 0 +0 0 2 1 0 0 16 453 16 0 ?482 443 479 480 0 0 3 30 454 101 0 443 480 483 0 +1
836909530733565e-31 1.5 2 0 0 -1 30 483 102 0 452 454 484 0 +1 2.5 2 0 0 -1 16 4
52 89 0 ?440 485 443 483 0 0 3 30 484 103 0 485 483 404 0 +2.5 2.5 2 0 0 -1 16 4
85 92 0 ?437 408 452 484 0 0 3 30 404 104 0 408 484 11 0 +2.5 0 2 0 0 -1 16 408
 95 0 ?420 14 485 404 0 0 3 17 420 486 471 421 433 415 408 0 461 +15 486 93 0 42
2 487 0 17 471 486 422 420 435 461 467 0 0 +17 421 486 420 422 410 481 479 0 482
 -17 461 455 446 458 433 471 467 0 419 -17 458 455 461 456 435 460 465 0 471 -17
 419 417 415 407 433 446 462 0 0 +15 417 96 0 415 402 0 17 407 417 419 418 431 4
09 14 0 413 +17 418 417 407 415 15 482 453 0 0 -17 482 488 481 414 410 418 453 0
 0 +15 488 3 0 414 489 0 17 481 488 478 482 416 421 479 0 0 +17 414 488 482 448
 15 412 447 0 418 -17 448 488 414 478 428 450 474 0 0 +17 478 488 448 481 423 49
0 476 0 0 +17 450 449 440 430 423 448 474 0 478 -17 490 491 437 427 416 478 476
 0 481 -15 491 90 0 427 492 0 17 437 491 460 490 435 422 485 0 458 +17 427 491 4
90 460 423 440 452 0 450 -17 460 491 427 437 438 458 465 0 0 +17 422 486 421 471
 416 437 485 0 490 -14 492 91 493 ?464 487 491 9 494 -0 0 489 487 406 81 1 493 1
36 149 492 0 0 495 496 497 14 464 42 496 ?489 492 449 9 498 -0 0 457 489 406 14
 487 94 495 ?492 402 486 9 403 -0 0 492 402 406 50 494 108 0 492 498 403 0 +2.5
 2.5 2 0 -1 0 0 0 -1 14 489 1 499 ?457 464 488 9 500 -0 0 464 492 406 13 406 43
 0 0 0 0 0 0 13 400 14 400 100 501 ?402 0 411 9 502 +0 0 402 0 406 81 1 501 133
 149 400 0 0 0 503 504 14 402 97 503 ?487 400 417 9 10 -0 0 487 400 406 50 502 1
06 0 400 500 498 0 +0 0 2 -1 0 0 0 0 1 50 500 2 0 489 505 502 0 +0 2.5 2 0 0 -1
 -1 0 0 51 498 107 0 464 502 494 0 +0 2.5 2 0 0 -1 1 -1 0 0 50 505 77 0 457 0 50
0 0 +0 2.5 0 0 0 -1 -1 0 0 14 457 73 506 ?0 489 455 9 505 +0 0 0 464 406 81 1 50
6 139 149 457 0 0 499 0 507 81 1 499 138 149 489 0 0 496 506 508 83 3 507 .75294
1176470588 .752941176470588 .752941176470588 81 1 496 137 149 464 0 0 493 499 50
9 83 3 508 .752941176470588 .752941176470588 .752941176470588 83 3 509 .75294117
6470588 .752941176470588 .752941176470588 81 1 503 134 149 402 0 0 501 495 510 8
1 1 495 135 149 487 0 0 503 493 511 83 3 510 .752941176470588 .752941176470588 .
752941176470588 83 3 511 .752941176470588 .752941176470588 .752941176470588 83 3
 504 .752941176470588 .752941176470588 .752941176470588 50 403 109 0 487 494 10
 0 +2.5 0 2 -1 0 0 0 0 1 83 3 497 .752941176470588 .752941176470588 .75294117647
0588 19 401 29 0 3 0 13 9 S74 20 399 2 0 506 6 0 0 0 0 0 0 0 0 0 0 0 0 0 0 0 0 0
 0 84 12 398 BLOCKHOLE_m41 0 
