                                                                        S      1
File generated by HOOPS Exchange Version 24.1.0                         S      2
                                                                        S      3
1H,,1H;,36He31a4beb-7cfc-48eb-a819-5aabb54240ba,40He31a4beb-7cfc-48eb-a8G      1
19-5aabb54240ba.igs,14HHOOPS Exchange,6H24.1.0,32,24,8,56,15,36He31a4bebG      2
-7cfc-48eb-a819-5aabb54240ba,1.,2,2HMM,1000,1.,13H240314.162326,1D-05,  G      3
1000000.,,,9,0,13H240314.162326;                                        G      4
     314       1       1       0       0       0       0       000020200D      1
     314    1000       0       2       0                               0D      2
     502       3       1       1   65535       0       0       000010201D      3
     502     100       0       3       1                       A       0D      4
     110       6       1       0       0       0       0       000010200D      5
     110    1000       0       1       0                               0D      6
     110       7       1       0       0       0       0       000010200D      7
     110    1000       0       1       0                               0D      8
     110       8       1       0       0       0       0       000010200D      9
     110    1000       0       1       0                               0D     10
     110       9       1       0       0       0       0       000010200D     11
     110    1000       0       1       0                               0D     12
     110      10       1       0       0       0       0       000010200D     13
     110    1000       0       1       0                               0D     14
     110      11       1       0       0       0       0       000010200D     15
     110    1000       0       1       0                               0D     16
     110      12       1       0       0       0       0       000010200D     17
     110    1000       0       1       0                               0D     18
     110      13       1       0       0       0       0       000010200D     19
     110    1000       0       1       0                               0D     20
     110      14       1       0       0       0       0       000010200D     21
     110    1000       0       1       0                               0D     22
     110      15       1       0       0       0       0       000010200D     23
     110    1000       0       1       0                               0D     24
     110      16       1       0       0       0       0       000010200D     25
     110    1000       0       1       0                               0D     26
     110      17       1       0       0       0       0       000010200D     27
     110    1000       0       1       0                               0D     28
     504      18       1       1   65535       0       0       000010201D     29
     504     100       0       3       1                       A       0D     30
     314      21       1       0       0       0       0       000020200D     31
     314    1000       0       2       0                               0D     32
     116      23       1       0       0       0       0       000010200D     33
     116    1000       0       1       0                               0D     34
     123      24       1       0       0       0       0       000010200D     35
     123    1000       0       1       0                               0D     36
     123      25       1       0       0       0       0       000010200D     37
     123    1000       0       1       0                               0D     38
     190      26       1       0       0       0       0       000010000D     39
     190    1000     -31       1       1                               0D     40
     508      27       1       0       0       0       0       000010001D     41
     508    1000       0       1       1                               0D     42
     510      28       1       1       0       0       0       000010201D     43
     510    1000     -31       1       1                               0D     44
     116      29       1       0       0       0       0       000010200D     45
     116    1000       0       1       0                               0D     46
     123      30       1       0       0       0       0       000010200D     47
     123    1000       0       1       0                               0D     48
     123      31       1       0       0       0       0       000010200D     49
     123    1000       0       1       0                               0D     50
     190      32       1       0       0       0       0       000010000D     51
     190    1000     -31       1       1                               0D     52
     508      33       1       0       0       0       0       000010001D     53
     508    1000       0       1       1                               0D     54
     510      34       1       1       0       0       0       000010201D     55
     510    1000     -31       1       1                               0D     56
     116      35       1       0       0       0       0       000010200D     57
     116    1000       0       1       0                               0D     58
     123      36       1       0       0       0       0       000010200D     59
     123    1000       0       1       0                               0D     60
     123      37       1       0       0       0       0       000010200D     61
     123    1000       0       1       0                               0D     62
     190      38       1       0       0       0       0       000010000D     63
     190    1000     -31       1       1                               0D     64
     508      39       1       0       0       0       0       000010001D     65
     508    1000       0       1       1                               0D     66
     510      40       1       1       0       0       0       000010201D     67
     510    1000     -31       1       1                               0D     68
     116      41       1       0       0       0       0       000010200D     69
     116    1000       0       1       0                               0D     70
     123      42       1       0       0       0       0       000010200D     71
     123    1000       0       1       0                               0D     72
     123      43       1       0       0       0       0       000010200D     73
     123    1000       0       1       0                               0D     74
     190      44       1       0       0       0       0       000010000D     75
     190    1000     -31       1       1                               0D     76
     508      45       1       0       0       0       0       000010001D     77
     508    1000       0       1       1                               0D     78
     510      46       1       1       0       0       0       000010201D     79
     510    1000     -31       1       1                               0D     80
     116      47       1       0       0       0       0       000010200D     81
     116    1000       0       1       0                               0D     82
     123      48       1       0       0       0       0       000010200D     83
     123    1000       0       1       0                               0D     84
     123      49       1       0       0       0       0       000010200D     85
     123    1000       0       1       0                               0D     86
     190      50       1       0       0       0       0       000010000D     87
     190    1000     -31       1       1                               0D     88
     508      51       1       0       0       0       0       000010001D     89
     508    1000       0       1       1                               0D     90
     510      52       1       1       0       0       0       000010201D     91
     510    1000     -31       1       1                               0D     92
     116      53       1       0       0       0       0       000010200D     93
     116    1000       0       1       0                               0D     94
     123      54       1       0       0       0       0       000010200D     95
     123    1000       0       1       0                               0D     96
     123      55       1       0       0       0       0       000010200D     97
     123    1000       0       1       0                               0D     98
     190      56       1       0       0       0       0       000010000D     99
     190    1000     -31       1       1                               0D    100
     508      57       1       0       0       0       0       000010001D    101
     508    1000       0       1       1                               0D    102
     510      58       1       1       0       0       0       000010201D    103
     510    1000     -31       1       1                               0D    104
     514      59       1       0       0       0       0       000010200D    105
     514    1000       0       1       1                               0D    106
     186      60       1       1   65535       0       0       000020201D    107
     186     100      -1       1       0                       A       0D    108
     308      61       1       0   65535       0       0       000020201D    109
     308    1000       0       1       0                       A       0D    110
     124      62       1       0       0       0       0       000010200D    111
     124    1000       0       1       0                               0D    112
     408      63       1       0   65535       0     111       000020001D    113
     408    1000       0       1       0                       A       0D    114
     502      64       1       1   65535       0       0       000010201D    115
     502     100       0       3       1                  Wheel1       0D    116
     110      67       1       0       0       0       0       000010200D    117
     110    1000       0       2       0                               0D    118
     124      69       1       0       0       0       0       001010200D    119
     124    1000       0       2       0                               0D    120
     100      71       1       0       0       0     119       000010200D    121
     100    1000       0       2       0                               0D    122
     110      73       1       0       0       0       0       000010200D    123
     110    1000       0       1       0                               0D    124
     124      74       1       0       0       0       0       001010200D    125
     124    1000       0       2       0                               0D    126
     100      76       1       0       0       0     125       000010200D    127
     100    1000       0       2       0                               0D    128
     124      78       1       0       0       0       0       001010200D    129
     124    1000       0       2       0                               0D    130
     100      80       1       0       0       0     129       000010200D    131
     100    1000       0       2       0                               0D    132
     124      82       1       0       0       0       0       001010200D    133
     124    1000       0       2       0                               0D    134
     100      84       1       0       0       0     133       000010200D    135
     100    1000       0       1       0                               0D    136
     124      85       1       0       0       0       0       001010200D    137
     124    1000       0       2       0                               0D    138
     100      87       1       0       0       0     137       000010200D    139
     100    1000       0       1       0                               0D    140
     124      88       1       0       0       0       0       001010200D    141
     124    1000       0       2       0                               0D    142
     100      90       1       0       0       0     141       000010200D    143
     100    1000       0       2       0                               0D    144
     504      92       1       1   65535       0       0       000010201D    145
     504     100       0       3       1                  Wheel1       0D    146
     116      95       1       0       0       0       0       000010200D    147
     116    1000       0       1       0                               0D    148
     123      96       1       0       0       0       0       000010200D    149
     123    1000       0       1       0                               0D    150
     123      97       1       0       0       0       0       000010200D    151
     123    1000       0       1       0                               0D    152
     192      98       1       0       0       0       0       000010000D    153
     192    1000     -31       1       1                               0D    154
     508      99       1       0       0       0       0       000010001D    155
     508    1000       0       1       1                               0D    156
     510     100       1       1       0       0       0       000010201D    157
     510    1000     -31       1       1                               0D    158
     116     101       1       0       0       0       0       000010200D    159
     116    1000       0       1       0                               0D    160
     123     102       1       0       0       0       0       000010200D    161
     123    1000       0       1       0                               0D    162
     123     103       1       0       0       0       0       000010200D    163
     123    1000       0       1       0                               0D    164
     190     104       1       0       0       0       0       000010000D    165
     190    1000     -31       1       1                               0D    166
     508     105       1       0       0       0       0       000010001D    167
     508    1000       0       1       1                               0D    168
     510     106       1       1       0       0       0       000010201D    169
     510    1000     -31       1       1                               0D    170
     116     107       1       0       0       0       0       000010200D    171
     116    1000       0       1       0                               0D    172
     123     108       1       0       0       0       0       000010200D    173
     123    1000       0       1       0                               0D    174
     123     109       1       0       0       0       0       000010200D    175
     123    1000       0       1       0                               0D    176
     190     110       1       0       0       0       0       000010000D    177
     190    1000     -31       1       1                               0D    178
     508     111       1       0       0       0       0       000010001D    179
     508    1000       0       1       1                               0D    180
     510     112       1       1       0       0       0       000010201D    181
     510    1000     -31       1       1                               0D    182
     116     113       1       0       0       0       0       000010200D    183
     116    1000       0       1       0                               0D    184
     123     114       1       0       0       0       0       000010200D    185
     123    1000       0       1       0                               0D    186
     123     115       1       0       0       0       0       000010200D    187
     123    1000       0       1       0                               0D    188
     192     116       1       0       0       0       0       000010000D    189
     192    1000     -31       1       1                               0D    190
     508     117       1       0       0       0       0       000010001D    191
     508    1000       0       2       1                               0D    192
     510     119       1       1       0       0       0       000010201D    193
     510    1000     -31       1       1                               0D    194
     514     120       1       0       0       0       0       000010200D    195
     514    1000       0       1       1                               0D    196
     186     121       1       1   65535       0       0       000020201D    197
     186     100      -1       1       0                  Wheel1       0D    198
     308     122       1       0   65535       0       0       000020201D    199
     308    1000       0       1       0                  Wheel1       0D    200
     124     123       1       0       0       0       0       000010200D    201
     124    1000       0       1       0                               0D    202
     408     124       1       0   65535       0     201       000020001D    203
     408    1000       0       1       0                  Wheel1       0D    204
     502     125       1       1   65535       0       0       000010201D    205
     502     100       0       2       1                    Base       0D    206
     110     127       1       0       0       0       0       000010200D    207
     110    1000       0       1       0                               0D    208
     110     128       1       0       0       0       0       000010200D    209
     110    1000       0       1       0                               0D    210
     110     129       1       0       0       0       0       000010200D    211
     110    1000       0       1       0                               0D    212
     110     130       1       0       0       0       0       000010200D    213
     110    1000       0       1       0                               0D    214
     110     131       1       0       0       0       0       000010200D    215
     110    1000       0       1       0                               0D    216
     110     132       1       0       0       0       0       000010200D    217
     110    1000       0       1       0                               0D    218
     110     133       1       0       0       0       0       000010200D    219
     110    1000       0       1       0                               0D    220
     110     134       1       0       0       0       0       000010200D    221
     110    1000       0       1       0                               0D    222
     110     135       1       0       0       0       0       000010200D    223
     110    1000       0       1       0                               0D    224
     110     136       1       0       0       0       0       000010200D    225
     110    1000       0       1       0                               0D    226
     110     137       1       0       0       0       0       000010200D    227
     110    1000       0       1       0                               0D    228
     110     138       1       0       0       0       0       000010200D    229
     110    1000       0       1       0                               0D    230
     504     139       1       1   65535       0       0       000010201D    231
     504     100       0       4       1                    Base       0D    232
     116     143       1       0       0       0       0       000010200D    233
     116    1000       0       1       0                               0D    234
     123     144       1       0       0       0       0       000010200D    235
     123    1000       0       1       0                               0D    236
     123     145       1       0       0       0       0       000010200D    237
     123    1000       0       1       0                               0D    238
     190     146       1       0       0       0       0       000010000D    239
     190    1000     -31       1       1                               0D    240
     508     147       1       0       0       0       0       000010001D    241
     508    1000       0       1       1                               0D    242
     510     148       1       1       0       0       0       000010201D    243
     510    1000     -31       1       1                               0D    244
     116     149       1       0       0       0       0       000010200D    245
     116    1000       0       1       0                               0D    246
     123     150       1       0       0       0       0       000010200D    247
     123    1000       0       1       0                               0D    248
     123     151       1       0       0       0       0       000010200D    249
     123    1000       0       1       0                               0D    250
     190     152       1       0       0       0       0       000010000D    251
     190    1000     -31       1       1                               0D    252
     508     153       1       0       0       0       0       000010001D    253
     508    1000       0       1       1                               0D    254
     510     154       1       1       0       0       0       000010201D    255
     510    1000     -31       1       1                               0D    256
     116     155       1       0       0       0       0       000010200D    257
     116    1000       0       1       0                               0D    258
     123     156       1       0       0       0       0       000010200D    259
     123    1000       0       1       0                               0D    260
     123     157       1       0       0       0       0       000010200D    261
     123    1000       0       1       0                               0D    262
     190     158       1       0       0       0       0       000010000D    263
     190    1000     -31       1       1                               0D    264
     508     159       1       0       0       0       0       000010001D    265
     508    1000       0       1       1                               0D    266
     510     160       1       1       0       0       0       000010201D    267
     510    1000     -31       1       1                               0D    268
     116     161       1       0       0       0       0       000010200D    269
     116    1000       0       1       0                               0D    270
     123     162       1       0       0       0       0       000010200D    271
     123    1000       0       1       0                               0D    272
     123     163       1       0       0       0       0       000010200D    273
     123    1000       0       1       0                               0D    274
     190     164       1       0       0       0       0       000010000D    275
     190    1000     -31       1       1                               0D    276
     508     165       1       0       0       0       0       000010001D    277
     508    1000       0       1       1                               0D    278
     510     166       1       1       0       0       0       000010201D    279
     510    1000     -31       1       1                               0D    280
     116     167       1       0       0       0       0       000010200D    281
     116    1000       0       1       0                               0D    282
     123     168       1       0       0       0       0       000010200D    283
     123    1000       0       1       0                               0D    284
     123     169       1       0       0       0       0       000010200D    285
     123    1000       0       1       0                               0D    286
     190     170       1       0       0       0       0       000010000D    287
     190    1000     -31       1       1                               0D    288
     508     171       1       0       0       0       0       000010001D    289
     508    1000       0       1       1                               0D    290
     510     172       1       1       0       0       0       000010201D    291
     510    1000     -31       1       1                               0D    292
     116     173       1       0       0       0       0       000010200D    293
     116    1000       0       1       0                               0D    294
     123     174       1       0       0       0       0       000010200D    295
     123    1000       0       1       0                               0D    296
     123     175       1       0       0       0       0       000010200D    297
     123    1000       0       1       0                               0D    298
     190     176       1       0       0       0       0       000010000D    299
     190    1000     -31       1       1                               0D    300
     508     177       1       0       0       0       0       000010001D    301
     508    1000       0       1       1                               0D    302
     510     178       1       1       0       0       0       000010201D    303
     510    1000     -31       1       1                               0D    304
     514     179       1       0       0       0       0       000010200D    305
     514    1000       0       1       1                               0D    306
     186     180       1       1   65535       0       0       000020201D    307
     186     100      -1       1       0                    Base       0D    308
     308     181       1       0   65535       0       0       000020201D    309
     308    1000       0       1       0                    Base       0D    310
     124     182       1       0       0       0       0       000010200D    311
     124    1000       0       1       0                               0D    312
     408     183       1       0   65535       0     311       000020001D    313
     408    1000       0       1       0                    Base       0D    314
     124     184       1       0       0       0       0       000010200D    315
     124    1000       0       1       0                               0D    316
     408     185       1       0   65535       0     315       000020001D    317
     408    1000       0       1       0                  Wheel1       0D    318
     124     186       1       0       0       0       0       000010200D    319
     124    1000       0       1       0                               0D    320
     408     187       1       0   65535       0     319       000020001D    321
     408    1000       0       1       0                  Wheel1       0D    322
     124     188       1       0       0       0       0       000010200D    323
     124    1000       0       1       0                               0D    324
     408     189       1       0   65535       0     323       000020001D    325
     408    1000       0       1       0                  Wheel1       0D    326
     308     190       1       0   65535       0       0       000020201D    327
     308    1000       0       1       0                      B2       0D    328
     124     191       1       0       0       0       0       000010200D    329
     124    1000       0       1       0                               0D    330
     408     192       1       0   65535       0     329       000020001D    331
     408    1000       0       1       0                      B2       0D    332
     308     193       1       0   65535       0       0       000020201D    333
     308    1000       0       1       0                   Car12       0D    334
     124     194       1       0       0       0       0       000010200D    335
     124    1000       0       1       0                               0D    336
     408     195       1       0   65535       0     335       000000001D    337
     408    1000       0       1       0                   Car12       0D    338
     124     196       1       0       0       0       0       000010200D    339
     124    1000       0       1       0                               0D    340
     408     197       1       0   65535       0     339       000020001D    341
     408    1000       0       1       0                       A       0D    342
     124     198       1       0       0       0       0       000010200D    343
     124    1000       0       1       0                               0D    344
     408     199       1       0   65535       0     343       000020001D    345
     408    1000       0       1       0                  Wheel1       0D    346
     124     200       1       0       0       0       0       000010200D    347
     124    1000       0       1       0                               0D    348
     408     201       1       0   65535       0     347       000020001D    349
     408    1000       0       1       0                    Base       0D    350
     124     202       1       0       0       0       0       000010200D    351
     124    1000       0       1       0                               0D    352
     408     203       1       0   65535       0     351       000020001D    353
     408    1000       0       1       0                  Wheel1       0D    354
     124     204       1       0       0       0       0       000010200D    355
     124    1000       0       1       0                               0D    356
     408     205       1       0   65535       0     355       000020001D    357
     408    1000       0       1       0                  Wheel1       0D    358
     124     206       1       0       0       0       0       000010200D    359
     124    1000       0       1       0                               0D    360
     408     207       1       0   65535       0     359       000020001D    361
     408    1000       0       1       0                  Wheel1       0D    362
     308     208       1       0   65535       0       0       000020201D    363
     308    1000       0       1       0                       B       0D    364
     124     209       1       0       0       0       0       000010200D    365
     124    1000       0       1       0                               0D    366
     408     210       1       0   65535       0     365       000020001D    367
     408    1000       0       1       0                       B       0D    368
     308     211       1       0   65535       0       0       000020201D    369
     308    1000       0       1       0                    Car1       0D    370
     124     212       1       0       0       0       0       000010200D    371
     124    1000       0       1       0                               0D    372
     408     213       1       0   65535       0     371       000000001D    373
     408    1000       0       1       0                    Car1       0D    374
314,56.0784339904785,68.6274566650391,56.0784339904785,5HCOLOR,        1P      1
0,0;                                                                   1P      2
502,8,0.,10000.,10000.,0.,5000.,10000.,0.,10000.,5000.,0.,5000.,       3P      3
5000.,10000.,10000.,10000.,10000.,10000.,5000.,10000.,5000.,           3P      4
10000.,10000.,5000.,5000.,0,0;                                         3P      5
110,0.,10000.,10000.,0.,5000.,10000.,0,0;                              5P      6
110,0.,10000.,5000.,0.,10000.,10000.,0,0;                              7P      7
110,0.,10000.,5000.,0.,5000.,5000.,0,0;                                9P      8
110,0.,5000.,5000.,0.,5000.,10000.,0,0;                               11P      9
110,10000.,10000.,10000.,0.,10000.,10000.,0,0;                        13P     10
110,10000.,10000.,5000.,10000.,10000.,10000.,0,0;                     15P     11
110,10000.,10000.,5000.,0.,10000.,5000.,0,0;                          17P     12
110,10000.,5000.,10000.,10000.,10000.,10000.,0,0;                     19P     13
110,10000.,5000.,5000.,10000.,5000.,10000.,0,0;                       21P     14
110,10000.,5000.,5000.,10000.,10000.,5000.,0,0;                       23P     15
110,0.,5000.,10000.,10000.,5000.,10000.,0,0;                          25P     16
110,0.,5000.,5000.,10000.,5000.,5000.,0,0;                            27P     17
504,12,5,3,1,3,2,7,3,3,3,1,9,3,3,3,4,11,3,4,3,2,13,3,5,3,1,15,3,      29P     18
6,3,5,17,3,6,3,3,19,3,7,3,5,21,3,8,3,7,23,3,8,3,6,25,3,2,3,7,27,      29P     19
3,4,3,8,0,0;                                                          29P     20
314,56.0784339904785,68.6274566650391,56.0784339904785,5HCOLOR,       31P     21
0,0;                                                                  31P     22
116,0.,5000.,5000.,0,0,0;                                             33P     23
123,-1.,0.,0.,0,0,0;                                                  35P     24
123,0.,0.,1.,0,0,0;                                                   37P     25
190,33,35,37,0,0;                                                     39P     26
508,4,0,29,1,0,0,0,29,2,0,0,0,29,3,1,0,0,29,4,1,0,0,0;                41P     27
510,39,1,1,41,0,0;                                                    43P     28
116,0.,10000.,5000.,0,0,0;                                            45P     29
123,0.,1.,0.,0,0,0;                                                   47P     30
123,-1.22464679914735D-16,0.,1.,0,0,0;                                49P     31
190,45,47,49,0,0;                                                     51P     32
508,4,0,29,2,1,0,0,29,5,0,0,0,29,6,0,0,0,29,7,1,0,0,0;                53P     33
510,51,1,1,53,0,0;                                                    55P     34
116,10000.,10000.,5000.,0,0,0;                                        57P     35
123,1.,0.,0.,0,0,0;                                                   59P     36
123,0.,0.,-1.,0,0,0;                                                  61P     37
190,57,59,61,0,0;                                                     63P     38
508,4,0,29,6,1,0,0,29,8,0,0,0,29,9,0,0,0,29,10,1,0,0,0;               65P     39
510,63,1,1,65,0,0;                                                    67P     40
116,10000.,5000.,5000.,0,0,0;                                         69P     41
123,0.,-1.,-0.,0,0,0;                                                 71P     42
123,-1.22464679914735D-16,0.,-1.,0,0,0;                               73P     43
190,69,71,73,0,0;                                                     75P     44
508,4,0,29,9,1,0,0,29,11,0,0,0,29,4,0,0,0,29,12,1,0,0,0;              77P     45
510,75,1,1,77,0,0;                                                    79P     46
116,0.,5000.,10000.,0,0,0;                                            81P     47
123,0.,0.,1.,0,0,0;                                                   83P     48
123,1.,-6.12323399573677D-17,0.,0,0,0;                                85P     49
190,81,83,85,0,0;                                                     87P     50
508,4,0,29,1,1,0,0,29,11,1,0,0,29,8,1,0,0,29,5,1,0,0,0;               89P     51
510,87,1,1,89,0,0;                                                    91P     52
116,0.,5000.,5000.,0,0,0;                                             93P     53
123,0.,0.,1.,0,0,0;                                                   95P     54
123,1.,-6.12323399573677D-17,0.,0,0,0;                                97P     55
190,93,95,97,0,0;                                                     99P     56
508,4,0,29,12,1,0,0,29,10,1,0,0,29,7,1,0,0,29,3,1,0,0,0;             101P     57
510,99,1,1,101,0,0;                                                  103P     58
514,6,43,1,55,1,67,1,79,1,91,1,103,0,0,0;                            105P     59
186,105,1,0;0,0;                                                     107P     60
308,2,1HA,1,107,0,0;                                                 109P     61
124,1.,-0.,0.,0.,0.,1.,0.,0.,-0.,0.,1.,0.,0,0;                       111P     62
408,109,0.,0.,0.,1.,0,0;                                             113P     63
502,6,-5000.,-1.22464679914735D-12,-5000.,0.,                        115P     64
-1.22464679914735D-12,-5000.,0.,0.,5000.,-5000.,0.,5000.,-5000.,     115P     65
5000.,0.,0.,5000.,0.,0,0;                                            115P     66
110,-5000.,6.12323399573677D-13,-5000.,0.,6.12323399573677D-13,      117P     67
-5000.,0,0;                                                          117P     68
124,0.,-0.,1.,0.,1.,6.12323399573677D-17,0.,0.,                      119P     69
-6.12323399573677D-17,1.,0.,0.,0,0;                                  119P     70
100,0.,0.,0.,-1.91428434946347D-12,5000.,-9.18485099360515D-13,      121P     71
-5000.,0,0;                                                          121P     72
110,-5000.,0.,5000.,0.,0.,5000.,0,0;                                 123P     73
124,0.,-0.,1.,-5000.,1.,6.12323399573677D-17,0.,0.,                  125P     74
-6.12323399573677D-17,1.,0.,0.,0,0;                                  125P     75
100,0.,0.,0.,-1.91428434946347D-12,5000.,-9.18485099360515D-13,      127P     76
-5000.,0,0;                                                          127P     77
124,0.,-0.,1.,-5000.,1.,6.12323399573677D-17,0.,0.,                  129P     78
-6.12323399573677D-17,1.,0.,0.,0,0;                                  129P     79
100,0.,0.,0.,-9.18485099360515D-13,-5000.,5000.,                     131P     80
-1.22464679914735D-12,0,0;                                           131P     81
124,0.,-0.,1.,-5000.,1.,6.12323399573677D-17,0.,0.,                  133P     82
-6.12323399573677D-17,1.,0.,0.,0,0;                                  133P     83
100,0.,0.,0.,5000.,0.,3.06161699786838D-13,5000.,0,0;                135P     84
124,0.,-0.,1.,0.,1.,6.12323399573677D-17,0.,0.,                      137P     85
-6.12323399573677D-17,1.,0.,0.,0,0;                                  137P     86
100,0.,0.,0.,5000.,0.,3.06161699786838D-13,5000.,0,0;                139P     87
124,0.,-0.,1.,0.,1.,6.12323399573677D-17,0.,0.,                      141P     88
-6.12323399573677D-17,1.,0.,0.,0,0;                                  141P     89
100,0.,0.,0.,-9.18485099360515D-13,-5000.,5000.,                     143P     90
-1.22464679914735D-12,0,0;                                           143P     91
504,8,117,115,1,115,2,121,115,3,115,2,123,115,4,115,3,127,115,4,     145P     92
115,1,131,115,1,115,5,135,115,5,115,4,139,115,6,115,3,143,115,2,     145P     93
115,6,0,0;                                                           145P     94
116,0.,0.,0.,0,0,0;                                                  147P     95
123,-1.,0.,0.,0,0,0;                                                 149P     96
123,0.,0.,1.,0,0,0;                                                  151P     97
192,147,149,5000.,151,0,0;                                           153P     98
508,4,0,145,1,1,0,0,145,2,0,0,0,145,3,0,0,0,145,4,1,0,0,0;           155P     99
510,153,1,1,155,0,0;                                                 157P    100
116,-5000.,0.,0.,0,0,0;                                              159P    101
123,1.,0.,0.,0,0,0;                                                  161P    102
123,0.,1.,-6.12323399573677D-17,0,0,0;                               163P    103
190,159,161,163,0,0;                                                 165P    104
508,3,0,145,6,1,0,0,145,4,1,0,0,145,5,1,0,0,0;                       167P    105
510,165,1,1,167,0,0;                                                 169P    106
116,0.,0.,0.,0,0,0;                                                  171P    107
123,1.,0.,0.,0,0,0;                                                  173P    108
123,0.,1.,-6.12323399573677D-17,0,0,0;                               175P    109
190,171,173,175,0,0;                                                 177P    110
508,3,0,145,7,1,0,0,145,2,1,0,0,145,8,1,0,0,0;                       179P    111
510,177,1,1,179,0,0;                                                 181P    112
116,0.,0.,0.,0,0,0;                                                  183P    113
123,-1.,0.,0.,0,0,0;                                                 185P    114
123,0.,0.,1.,0,0,0;                                                  187P    115
192,183,185,5000.,187,0,0;                                           189P    116
508,6,0,145,1,0,0,0,145,5,1,0,0,145,6,1,0,0,145,3,1,0,0,145,7,0,     191P    117
0,0,145,8,0,0,0,0;                                                   191P    118
510,189,1,1,191,0,0;                                                 193P    119
514,4,157,1,169,0,181,1,193,1,0,0;                                   195P    120
186,195,1,0;0,0;                                                     197P    121
308,3,6HWheel1,1,197,0,0;                                            199P    122
124,1.,-0.,0.,0.,0.,1.,0.,0.,-0.,0.,1.,0.,0,0;                       201P    123
408,199,0.,0.,0.,1.,0,0;                                             203P    124
502,8,0.,20000.,5000.,0.,0.,5000.,0.,20000.,0.,0.,0.,0.,10000.,      205P    125
20000.,5000.,10000.,20000.,0.,10000.,0.,5000.,10000.,0.,0.,0,0;      205P    126
110,0.,20000.,5000.,0.,0.,5000.,0,0;                                 207P    127
110,0.,20000.,0.,0.,20000.,5000.,0,0;                                209P    128
110,0.,20000.,0.,0.,0.,0.,0,0;                                       211P    129
110,0.,0.,0.,0.,0.,5000.,0,0;                                        213P    130
110,10000.,20000.,5000.,0.,20000.,5000.,0,0;                         215P    131
110,10000.,20000.,0.,10000.,20000.,5000.,0,0;                        217P    132
110,10000.,20000.,0.,0.,20000.,0.,0,0;                               219P    133
110,10000.,0.,5000.,10000.,20000.,5000.,0,0;                         221P    134
110,10000.,0.,0.,10000.,0.,5000.,0,0;                                223P    135
110,10000.,0.,0.,10000.,20000.,0.,0,0;                               225P    136
110,0.,0.,5000.,10000.,0.,5000.,0,0;                                 227P    137
110,0.,0.,0.,10000.,0.,0.,0,0;                                       229P    138
504,12,207,205,1,205,2,209,205,3,205,1,211,205,3,205,4,213,205,      231P    139
4,205,2,215,205,5,205,1,217,205,6,205,5,219,205,6,205,3,221,205,     231P    140
7,205,5,223,205,8,205,7,225,205,8,205,6,227,205,2,205,7,229,205,     231P    141
4,205,8,0,0;                                                         231P    142
116,0.,10000.,0.,0,0,0;                                              233P    143
123,-1.,0.,0.,0,0,0;                                                 235P    144
123,0.,0.,1.,0,0,0;                                                  237P    145
190,233,235,237,0,0;                                                 239P    146
508,4,0,231,1,0,0,0,231,2,0,0,0,231,3,1,0,0,231,4,1,0,0,0;           241P    147
510,239,1,1,241,0,0;                                                 243P    148
116,0.,20000.,0.,0,0,0;                                              245P    149
123,0.,1.,0.,0,0,0;                                                  247P    150
123,-1.22464679914735D-16,0.,1.,0,0,0;                               249P    151
190,245,247,249,0,0;                                                 251P    152
508,4,0,231,2,1,0,0,231,5,0,0,0,231,6,0,0,0,231,7,1,0,0,0;           253P    153
510,251,1,1,253,0,0;                                                 255P    154
116,10000.,10000.,0.,0,0,0;                                          257P    155
123,1.,0.,0.,0,0,0;                                                  259P    156
123,0.,0.,-1.,0,0,0;                                                 261P    157
190,257,259,261,0,0;                                                 263P    158
508,4,0,231,6,1,0,0,231,8,0,0,0,231,9,0,0,0,231,10,1,0,0,0;          265P    159
510,263,1,1,265,0,0;                                                 267P    160
116,10000.,0.,0.,0,0,0;                                              269P    161
123,0.,-1.,-0.,0,0,0;                                                271P    162
123,-1.22464679914735D-16,0.,-1.,0,0,0;                              273P    163
190,269,271,273,0,0;                                                 275P    164
508,4,0,231,9,1,0,0,231,11,0,0,0,231,4,0,0,0,231,12,1,0,0,0;         277P    165
510,275,1,1,277,0,0;                                                 279P    166
116,0.,10000.,5000.,0,0,0;                                           281P    167
123,0.,0.,1.,0,0,0;                                                  283P    168
123,1.,-6.12323399573677D-17,0.,0,0,0;                               285P    169
190,281,283,285,0,0;                                                 287P    170
508,4,0,231,1,1,0,0,231,11,1,0,0,231,8,1,0,0,231,5,1,0,0,0;          289P    171
510,287,1,1,289,0,0;                                                 291P    172
116,0.,10000.,0.,0,0,0;                                              293P    173
123,0.,0.,1.,0,0,0;                                                  295P    174
123,1.,-6.12323399573677D-17,0.,0,0,0;                               297P    175
190,293,295,297,0,0;                                                 299P    176
508,4,0,231,12,1,0,0,231,10,1,0,0,231,7,1,0,0,231,3,1,0,0,0;         301P    177
510,299,1,1,301,0,0;                                                 303P    178
514,6,243,1,255,1,267,1,279,1,291,1,303,0,0,0;                       305P    179
186,305,1,0;0,0;                                                     307P    180
308,3,4HBase,1,307,0,0;                                              309P    181
124,1.,-0.,0.,0.,0.,1.,0.,0.,-0.,0.,1.,0.,0,0;                       311P    182
408,309,0.,0.,0.,1.,0,0;                                             313P    183
124,1.,-0.,0.,0.,0.,1.,0.,20000.,-0.,0.,1.,0.,0,0;                   315P    184
408,199,0.,0.,0.,1.,0,0;                                             317P    185
124,-1.,0.,0.,10000.,0.,-1.,0.,0.,0.,0.,1.,0.,0,0;                   319P    186
408,199,0.,0.,0.,1.,0,0;                                             321P    187
124,-1.,0.,0.,10000.,0.,-1.,0.,20000.,0.,0.,1.,0.,0,0;               323P    188
408,199,0.,0.,0.,1.,0,0;                                             325P    189
308,2,2HB2,5,203,313,317,321,325,0,0;                                327P    190
124,1.,-0.,0.,0.,0.,1.,0.,0.,-0.,0.,1.,0.,0,0;                       329P    191
408,327,0.,0.,0.,1.,0,0;                                             331P    192
308,1,5HCar12,2,113,331,0,0;                                         333P    193
124,1.,-0.,0.,0.,0.,1.,0.,0.,-0.,0.,1.,0.,0,0;                       335P    194
408,333,0.,0.,0.,1.,0,0;                                             337P    195
124,1.,-0.,0.,0.,0.,1.,0.,0.,-0.,0.,1.,0.,0,0;                       339P    196
408,109,0.,0.,0.,1.,0,0;                                             341P    197
124,1.,-0.,0.,0.,0.,1.,0.,0.,-0.,0.,1.,0.,0,0;                       343P    198
408,199,0.,0.,0.,1.,0,0;                                             345P    199
124,1.,-0.,0.,0.,0.,1.,0.,0.,-0.,0.,1.,0.,0,0;                       347P    200
408,309,0.,0.,0.,1.,0,0;                                             349P    201
124,1.,-0.,0.,0.,0.,1.,0.,20000.,-0.,0.,1.,0.,0,0;                   351P    202
408,199,0.,0.,0.,1.,0,0;                                             353P    203
124,-1.,0.,0.,10000.,0.,-1.,0.,0.,0.,0.,1.,0.,0,0;                   355P    204
408,199,0.,0.,0.,1.,0,0;                                             357P    205
124,-1.,0.,0.,10000.,0.,-1.,0.,20000.,0.,0.,1.,0.,0,0;               359P    206
408,199,0.,0.,0.,1.,0,0;                                             361P    207
308,2,1HB,5,345,349,353,357,361,0,0;                                 363P    208
124,1.,-0.,0.,0.,0.,1.,0.,0.,-0.,0.,1.,0.,0,0;                       365P    209
408,363,0.,0.,0.,1.,0,0;                                             367P    210
308,1,4HCar1,2,341,367,0,0;                                          369P    211
124,1.,-0.,0.,30000.,0.,1.,0.,0.,-0.,0.,1.,0.,0,0;                   371P    212
408,369,0.,0.,0.,1.,0,0;                                             373P    213
S      3G      4D    374P    213                                        T      1
